PathFileType	4	(X/Y/Z)	C:/Users/beibeiliu/ov580/test_trc\sequence.12_training_dense_left.trc
DataRate	CameraRate	NumFrames	NumMarkers	Units	OrigDataRate	OrigDataStartFrame	OrigNumFrames
120	120	19	19	mm	120	284	324
Frame#	Time	ThumbCMC			ThumbMCP			ThumbIP			ThumbTip			IndexMCP			IndexPIP			IndexTip			MiddleMCP			MiddlePIP			MiddleTip			RingMCP			RingPIP			RingTip			PinkyMCP			PinkyPIP			PinkyTip			BackHand1			BackHand2			BackHand3	
		X0	Y0	Z0	X1	Y1	Z1	X2	Y2	Z2	X3	Y3	Z3	X4	Y4	Z4	X5	Y5	Z5	X6	Y6	Z6	X7	Y7	Z7	X8	Y8	Z8	X9	Y9	Z9	X10	Y10	Z10	X11	Y11	Z11	X12	Y12	Z12	X13	Y13	Z13	X14	Y14	Z14	X15	Y15	Z15	X16	Y16	Z16	X17	Y17	Z17	X18	Y18	Z18	
283	2.35833	-129.648	-21.73	16.5891	-108.48	-24.4611	1.05239	-93.119	-24.3524	-11.6137	-76.853	-21.8279	-17.3118	-122.928	-31.3625	-49.8303	-116.405	-36.5651	-68.183	-109.64	-39.0473	-92.7801	-146.955	-33.1759	-62.587	-147.501	-37.6855	-80.9641	-147.657	-37.9982	-104.358	-171.338	-33.9379	-54.938	-172.779	-37.3515	-75.9373	-173.101	-37.7404	-96.2526	-191.931	-37.7232	-42.0578	-199.291	-41.0546	-55.5251	-204.229	-37.4526	-72.1084	-173.517	-15.4756	-14.3977	-170.845	-7.82566	10.2646	-144.168	-9.12481	-2.60835	
284	2.36667	-130.478	-23.2774	16.7725	-109.216	-25.8605	4.17025	-92.153	-24.1547	-10.4252	-78.1631	-23.074	-22.6329	-125.485	-31.0982	-49.5911	-117.475	-36.9607	-75.1722	-108.023	-39.1108	-93.7218	-148.053	-32.5003	-60.1739	-146.217	-37.2316	-80.0214	-145.168	-38.4853	-105.443	-168.499	-34.8399	-55.8767	-170.721	-37.1858	-74.6007	-170.22	-37.5884	-95.3253	-188.974	-37.2952	-44.6691	-195.719	-40.5706	-55.4203	-207.368	-39.3048	-75.579	-169.087	-17.5629	-16.0848	-176.459	-6.51002	11.0008	-143.499	-10.3053	-1.34257	
285	2.375	-130.531	-23.2016	15.28	-107.179	-24.0969	4.36062	-93.8213	-25.7992	-10.9307	-76.4649	-22.7777	-16.7888	-124.913	-32.5004	-54.1623	-112.99	-37.2097	-73.4629	-108.291	-38.7449	-91.9455	-149.713	-33.1482	-63.8554	-145.273	-37.9581	-84.3368	-145.113	-38.7749	-106.987	-170.081	-34.371	-53.4538	-169.046	-37.7145	-75.4767	-173.807	-37.8598	-96.466	-188.927	-37.1986	-43.6217	-199.07	-41.0539	-57.6837	-204.952	-39.9361	-73.2606	-170.691	-15.5217	-14.5386	-174.628	-9.16293	6.79504	-146.28	-10.0726	0.368297	
286	2.38333	-130.117	-23.7515	13.3042	-108.989	-26.3226	5.47788	-91.3208	-25.099	-12.4955	-77.498	-23.4207	-21.405	-123.006	-32.744	-54.5723	-115.546	-37.426	-72.086	-111.664	-39.4851	-90.9575	-149.617	-32.2701	-59.5362	-147.421	-37.802	-80.8563	-147.632	-39.9467	-108.403	-166.289	-33.6322	-57.8456	-171.559	-37.2842	-76.9631	-173.19	-38.22	-98.5668	-191.584	-37.0934	-41.272	-195.467	-40.3369	-56.3966	-204.301	-38.5996	-74.8735	-170.989	-18.3555	-16.978	-170.206	-8.17699	8.55757	-144.298	-10.8214	0.94657	
287	2.39167	-129.009	-23.4878	16.9536	-109.484	-26.6199	0.649495	-89.8293	-24.799	-12.4396	-75.0101	-23.5355	-21.7307	-121.831	-32.8246	-54.1955	-118.015	-36.9748	-71.2686	-108.37	-40.2992	-95.0285	-148.752	-32.2881	-59.7216	-145.214	-37.6852	-85.333	-146.453	-40.3154	-107.292	-167.852	-34.9913	-55.2825	-168.689	-37.2874	-74.3714	-170.695	-37.5353	-96.8574	-190.358	-37.4685	-40.4531	-195.714	-41.3643	-57.4291	-200.993	-39.8404	-73.4505	-171.29	-16.6024	-17.4163	-173.199	-7.27281	11.4113	-143.796	-10.9985	0.138393	
288	2.4	-129.776	-25.3951	16.1178	-106.063	-27.0777	4.96923	-90.3076	-26.1574	-13.0064	-78.4579	-26.3089	-19.342	-125.572	-32.8411	-53.0917	-116.617	-37.2789	-70.7072	-110.217	-39.9102	-91.961	-150.243	-33.6416	-63.2646	-148.559	-38.5763	-83.1473	-146.068	-39.6478	-109.565	-171.903	-34.3335	-54.5845	-167.585	-38.5016	-73.9272	-168.977	-38.7467	-93.8948	-190.83	-37.3863	-41.1984	-196.708	-41.6532	-59.1434	-203	-36.7539	-75.3091	-171.911	-16.1044	-13.0182	-171.973	-9.9326	11.0047	-145.72	-12.5917	-3.50417	
289	2.40833	-128.815	-24.7815	18.3253	-107.285	-27.6628	5.57003	-90.1756	-26.2546	-13.0179	-76.0381	-24.7353	-16.161	-123.508	-33.4432	-49.076	-118.325	-38.7547	-73.8503	-112.306	-40.8408	-93.2598	-148.933	-33.7639	-59.2286	-147.925	-37.5567	-80.5617	-147.175	-39.933	-110.688	-167.407	-34.5088	-57.1779	-167.096	-37.4725	-76.0468	-173.127	-36.9015	-96.5962	-189.877	-38.3934	-40.7506	-193.741	-40.3571	-55.05	-202.271	-36.3351	-74.9245	-170.485	-19.2377	-15.7871	-172.535	-7.95707	9.72036	-148.078	-10.9938	-1.25134	
290	2.41667	-127.702	-25.4205	18.2876	-105.938	-26.5199	3.18258	-89.2993	-25.7803	-13.5292	-75.7607	-25.092	-21.5785	-123.431	-33.642	-48.5038	-117.707	-38.2448	-74.0743	-110.824	-40.442	-90.7103	-148.231	-34.6881	-63.5162	-147.731	-38.4308	-83.3711	-143.474	-39.7706	-107.742	-167.818	-35.3374	-57.1655	-169.512	-37.2381	-76.0699	-171.9	-36.4815	-96.853	-189.984	-37.6865	-39.2756	-198.941	-40.6042	-58.2058	-204.769	-37.86	-71.1903	-167.949	-16.8287	-11.6622	-172.636	-8.90045	9.3461	-147.658	-14.3493	-3.80025	
291	2.425	-126.537	-24.4435	16.0268	-109.576	-28.8624	1.31237	-91.3554	-27.193	-12.903	-78.006	-27.0632	-17.0861	-119.747	-33.9527	-53.1766	-118.531	-37.7156	-73.5475	-112.066	-40.517	-92.2906	-146.453	-33.1067	-60.9954	-148.027	-37.6443	-81.0405	-143.842	-40.3281	-105.949	-170.393	-34.872	-54.644	-172.82	-38.1973	-72.918	-172.299	-36.3123	-96.4219	-193.294	-37.9298	-44.0545	-195.18	-41.2295	-56.3439	-204.236	-37.3288	-69.9582	-173.075	-19.6728	-14.5937	-175.667	-9.55447	9.92778	-145.849	-11.8014	-1.03069	
292	2.43333	-126.53	-24.5109	15.2122	-109.781	-28.3511	1.83515	-92.306	-27.1737	-10.4938	-76.5255	-25.3599	-20.4674	-125.323	-34.1735	-53.3433	-118.536	-38.4267	-70.6672	-111.908	-41.3077	-92.3859	-150.866	-34.4138	-61.4625	-144.896	-37.8622	-84.7577	-145.105	-39.2683	-104.537	-168.706	-34.3103	-56.0226	-171.604	-36.4914	-78.6012	-173.816	-37.2612	-93.6038	-192.136	-37.6368	-38.8066	-196.202	-40.406	-54.7769	-201.132	-37.0963	-70.8787	-173.495	-18.6372	-12.4971	-169.903	-12.037	8.4652	-146.128	-11.9065	-0.898266	
293	2.44167	-129.613	-26.046	19.1463	-108.611	-29.2422	6.45318	-90.3406	-27.6688	-14.0756	-78.2707	-27.5153	-17.1042	-124.058	-34.4357	-49.1684	-117.184	-38.7286	-72.4843	-108.978	-40.7785	-89.7595	-146.112	-33.5594	-64.0937	-147.238	-38.5114	-82.8769	-148.939	-40.3859	-106.474	-168.079	-34.2378	-52.4219	-168.718	-37.5754	-72.477	-173.765	-36.6567	-93.0487	-187.02	-37.9978	-41.2897	-193.141	-40.6004	-58.2796	-200.68	-36.5346	-73.9235	-172.948	-19.1379	-16.1399	-171.55	-10.3295	6.86762	-144.739	-14.4596	-2.16386	
294	2.45	-125.964	-25.6981	16.4338	-108.829	-28.05	2.29191	-93.305	-28.3832	-10.7358	-78.4457	-27.8345	-17.2466	-122.969	-34.0203	-48.8206	-118.313	-38.4882	-71.9593	-108.846	-41.9788	-94.5076	-150.032	-34.6703	-62.7465	-147.917	-37.772	-81.0848	-146.025	-39.5708	-110.304	-170.391	-34.9014	-53.6249	-172.163	-37.0525	-76.2322	-174.027	-36.801	-93.8898	-192.341	-37.109	-44.2434	-197.426	-40.3927	-58.6912	-204.28	-37.4456	-76.2634	-171.045	-19.5746	-15.8332	-175.368	-9.20368	11.8084	-146.945	-13.3042	1.16334	
295	2.45833	-131.103	-26.4666	17.8654	-106.472	-28.0492	3.68536	-94.2956	-29.0952	-11.6216	-74.838	-25.1901	-18.0656	-121.105	-34.6567	-53.8415	-118.352	-39.5698	-73.825	-109.951	-42.3301	-92.1925	-146.747	-34.4064	-59.7569	-148.356	-38.4822	-81.1679	-147.592	-40.6643	-109.079	-167.771	-35.5444	-54.0038	-172.523	-37.2481	-79.3697	-168.352	-37.7232	-96.3975	-191.953	-38.4971	-41.5144	-196.193	-39.8744	-59.4487	-203.232	-37.0504	-76.4223	-168.793	-18.8088	-13.7907	-173.654	-11.6574	7.55491	-147.135	-14.6454	0.00426359	
296	2.46667	-130.785	-26.6899	18.5237	-110.715	-30.4846	3.51932	-90.9677	-27.8487	-14.6686	-75.9771	-26.4539	-19.7214	-122.493	-35.3258	-53.3743	-116.104	-39.2673	-69.5175	-110.793	-43.6964	-93.7902	-145.557	-35.4861	-62.8773	-144.618	-39.5905	-83.7099	-148.676	-41.6515	-106.423	-168.11	-35.5807	-54.2461	-172.009	-37.9549	-76.894	-171.728	-38.6785	-95.5144	-191.412	-38.7815	-44.9333	-193.764	-40.8368	-60.6398	-199.644	-38.1718	-72.9358	-171.812	-19.1722	-17.8758	-171.852	-13.2227	9.71271	-147.215	-13.6907	0.767151	
297	2.475	-128.067	-26.6928	14.2884	-112.45	-31.2091	2.20615	-93.4922	-29.6759	-12.1655	-77.9619	-28.4352	-21.3024	-121.317	-35.1436	-52.5732	-114.586	-40.5139	-71.6271	-110.994	-43.8046	-94.5966	-150.896	-34.9033	-61.4299	-145.119	-40.2215	-83.4948	-146.077	-42.2578	-109.704	-168.779	-35.8384	-56.7261	-172.948	-39.0304	-74.7962	-167.837	-38.6088	-97.2444	-192.07	-39.0681	-41.6297	-193.274	-41.5888	-57.0542	-204.339	-39.6555	-77.6215	-172.904	-21.91	-13.5678	-176.666	-11.7573	6.97742	-148.28	-16.6559	-3.76671	
298	2.48333	-129.339	-27.8711	15.0193	-109.014	-30.5959	4.59312	-94.0639	-30.5298	-14.5103	-79.7361	-29.0278	-19.7278	-123.929	-35.9826	-54.134	-118.169	-41.7619	-73.3134	-109.533	-43.9678	-95.1411	-145.575	-36.3909	-63.7512	-145.027	-40.0436	-82.6217	-149.207	-42.5014	-111.092	-166.284	-36.6701	-57.79	-167.579	-39.0438	-78.844	-170.483	-40.0632	-94.6029	-188.64	-39.6301	-45.2911	-197.508	-42.9307	-60.5698	-205.109	-40.7054	-72.1943	-169.014	-21.6159	-14.2641	-173.124	-12.4058	8.64639	-147.441	-15.74	-2.06374	
299	2.49167	-127.873	-27.7324	14.3411	-112.369	-31.5808	3.83567	-92.7147	-29.6191	-14.8052	-75.5571	-26.3053	-22.0077	-124.37	-37.6095	-54.9248	-119.233	-41.4387	-72.7987	-112.24	-44.8063	-90.8711	-149.893	-37.053	-65.1651	-146.799	-40.5782	-82.3169	-145.342	-42.6001	-105.979	-170.808	-37.2595	-53.8167	-172.15	-40.296	-77.1988	-168.561	-40.525	-94.3048	-191.683	-40.5472	-40.7996	-192.81	-43.6632	-56.6318	-203.267	-39.5131	-77.9708	-170.838	-20.7564	-14.16	-174.455	-12.3087	7.54029	-147.441	-16.6363	-2.67429	
300	2.5	-129.626	-28.5904	19.1638	-108.907	-30.1593	0.488148	-94.9438	-30.3643	-14.1539	-75.9018	-28.3507	-21.6029	-126.037	-36.2927	-54.9489	-115.267	-41.5428	-71.1283	-113.265	-44.689	-93.3498	-150.671	-36.7463	-63.1384	-146.859	-40.9417	-83.3928	-144.677	-43.4103	-106.27	-170.268	-36.8703	-57.1949	-169.039	-40.674	-74.0152	-171.045	-39.7952	-99.1287	-192.301	-41.1119	-44.8631	-196.647	-43.8561	-57.2157	-202.139	-42.0127	-73.1987	-169.845	-22.817	-13.048	-170.485	-12.3557	6.55949	-149.295	-15.9544	-2.97268	
301	2.50833	-130.271	-29.1094	15.3153	-107.678	-29.6375	0.545102	-91.4917	-30.3011	-11.2885	-78.4905	-28.8841	-19.1827	-126.336	-36.5594	-51.3626	-116.598	-41.2971	-70.6539	-107.652	-45.0969	-92.2169	-149.98	-36.6283	-59.5875	-147.707	-42.0126	-86.8761	-149.037	-42.9237	-107.63	-167.119	-38.0936	-54.2969	-172.099	-39.9762	-75.7694	-167.425	-39.3502	-99.2038	-192.404	-40.8257	-43.4678	-196.927	-44.4274	-58.4408	-201.817	-41.4441	-74.1332	-173.409	-23.1034	-13.3775	-173.522	-12.6392	7.56035	-145.747	-14.7689	-2.6278	
